# xmcd
#
# Track frame offsets:
#	150
#	14919
#	33080
#	46315
#	65053
#	83390
#	99697
#	116988
#	133818
#	147439
#	158986
#	188017
#	203679
#	220923
#	238546
#	256092
#	271340
#	289124
#
# Disc length: 4074 seconds
#
# Revision: 6
# Processed by: cddbd v1.5.1PL0 Copyright (c) Steve Scherf et al.
# Submitted via: audiograbber 1.83.01
#
DISCID=0b0fe812
DTITLE=2003-10 Country Radio - 2003-10 Country Radio
DYEAR=2003
DGENRE=Country
TTITLE0=Brooks and Dunn - You Can't Take The Honky Tonk Out Of The Girl
TTITLE1=Sara Evans - Perfect
TTITLE2=Joe Nichols - Cool To Be A Fool
TTITLE3=Vince Gill - Young Mans Town
TTITLE4=Wynonna - Heaven Help Me
TTITLE5=Brain McComas - You're In My Head
TTITLE6=James Otto - Days Of Our Lives
TTITLE7=Kellie Coffey - Texas Plates
TTITLE8=Blue County - Good Little Girls
TTITLE9=Merle Haggard - That's The News
TTITLE10=Tim McGraw - Real Good Man-The Ride (Live)
TTITLE11=Lucky Shy - All Dressed Up With No One To Hold
TTITLE12=Ray Stevens - We're Having A Baby
TTITLE13=Rodney Crowell - Fate's Right Hand
TTITLE14=Lee Greenwood - When A Woman's In Love
TTITLE15=Smokin' Armadillos - You Were A Mountain
TTITLE16=Kacey Jones - Here's Lookin' At You, Naked
TTITLE17=Chris Campbell - Lookin' Out For Tomorrow
EXTD=
EXTT0=
EXTT1=
EXTT2=
EXTT3=
EXTT4=
EXTT5=
EXTT6=
EXTT7=
EXTT8=
EXTT9=
EXTT10=
EXTT11=
EXTT12=
EXTT13=
EXTT14=
EXTT15=
EXTT16=
EXTT17=
PLAYORDER=
